<?xml version="1.0" encoding="UTF-8"?>
<svg xmlns="http://www.w3.org/2000/svg" xmlns:xlink="http://www.w3.org/1999/xlink" width="17cm" height="12cm" viewBox="0 0 170 120" version="1.1">
<defs>
<clipPath id="clip1">
  <path d="M 0 120 L 170 120 L 170 0 L 0 0 L 0 120 Z M 0 120 "/>
</clipPath>
</defs>
<g id="surface0">
<g clip-path="url(#clip1)" clip-rule="nonzero">
<path style=" stroke:none;fill-rule: nonzero; fill: rgb(40%,40%,40%); fill-opacity: 1;" d="M 0 120 L 40 60 L 0 0 L 30 0 L 70 60 L 30 120 L 0 120 Z M 0 120 "/>
<path style=" stroke:none;fill-rule: nonzero; fill: rgb(60%,60%,60%); fill-opacity: 1;" d="M 40 120 L 80 60 L 40 0 L 70 0 L 150 120 L 120 120 L 95 82.5 L 70 120 L 40 120 Z M 40 120 "/>
<path style=" stroke:none;fill-rule: nonzero; fill: rgb(40%,40%,40%); fill-opacity: 1;" d="M 136.666667 85 L 123.333333 65 L 170 65 L 170 85 L 136.666667 85 Z M 136.666667 85 "/>
<path style=" stroke:none;fill-rule: nonzero; fill: rgb(40%,40%,40%); fill-opacity: 1;" d="M 116.666667 55 L 103.333333 35 L 170 35 L 170 55 L 116.666667 55 Z M 116.666667 55 "/>
</g>
</g>
</svg>